# xmcd CD database file
#
# Track frame offsets:
#	150
#	17279
#	52832
#	89422
#	125305
#	153617
#	158647
#	193035
#	245611
#	247225
#	251276
#	276483
#
# Disc length: 4115 seconds
#
# Revision: 0
# Processed by: cddbd v1.5PL3 Copyright (c) Steve Scherf et al.
# Submitted via: CDex 1.50
#
DISCID=9b10110c
DTITLE=Triosphere - Triosphere
DYEAR=2004
DGENRE=Jazz
TTITLE0=In the Speed Mode
TTITLE1=Dantie's Dance
TTITLE2=Inner Vibes of Love
TTITLE3=Die Leichtigkeit der Puppen
TTITLE4=Natureza
TTITLE5=Fraktal 1
TTITLE6=Jandor
TTITLE7=Riki Zauberlet
TTITLE8=Fraktal 2
TTITLE9=Münchhausens Winterreise
TTITLE10=Petra vom Finanzamt
TTITLE11=Käpt'n Blaubär
EXTD=YEAR: 2004
EXTT0=
EXTT1=
EXTT2=
EXTT3=
EXTT4=
EXTT5=
EXTT6=
EXTT7=
EXTT8=
EXTT9=
EXTT10=
EXTT11=
PLAYORDER=
